<?xml version="1.0" encoding="UTF-8" standalone="no"?>
<!-- Generator: Adobe Illustrator 13.0.2, SVG Export Plug-In . SVG Version: 6.00 Build 14948)  -->

<svg
   version="1.1"
   xml:space="preserve"
   viewBox="0 0 174.98412 127.21902"
   width="174.98412"
   height="127.21902"
   x="0px"
   y="0px"
   enable-background="new 0 0 200 200"
   id="svg15"
   xmlns="http://www.w3.org/2000/svg"
   xmlns:svg="http://www.w3.org/2000/svg"><defs
   id="defs15" />

<linearGradient
   id="SVGID_right_"
   y2="1.279e-13"
   gradientUnits="userSpaceOnUse"
   x2="-1073.2"
   gradientTransform="translate(1183.188)"
   y1="126.85"
   x1="-1073.2">
	<stop
   stop-color="#1b3967"
   offset=".011"
   id="stop1" />
	<stop
   stop-color="#13b5ea"
   offset=".467"
   id="stop2" />
	<stop
   stop-color="#002b5c"
   offset=".9945"
   id="stop3" />
</linearGradient>

<linearGradient
   id="SVGID_left_"
   y2="1.279e-13"
   gradientUnits="userSpaceOnUse"
   x2="-1073.2"
   gradientTransform="matrix(-1,0,0,1,-1008.204,-9.9923408e-4)"
   y1="126.85"
   x1="-1073.2">
	<stop
   stop-color="#1b3967"
   offset=".011"
   id="stop4" />
	<stop
   stop-color="#13b5ea"
   offset=".467"
   id="stop5" />
	<stop
   stop-color="#002b5c"
   offset=".9945"
   id="stop6" />
</linearGradient>

<path
   d="m 138.38912,14.189001 c 0.077,1.313 -1.787,0.968 -1.787,2.293 0,38.551 -46.558,97.366009 -91.687985,108.730009 v 1.639 C 104.86713,121.33101 173.47412,59.051001 174.98412,0.00100077 l -36.599,14.18900023 z"
   style="fill:url(#SVGID_right_)"
   id="path6" />
<path
   d="m 120.25712,18.932001 c 0.076,1.313 0.12,2.63 0.12,3.957 0,38.551 -30.69898,90.497009 -75.826985,101.860009 v 1.639 c 59.044005,-2.79 105.809995,-63.024009 105.809995,-109.200009 0,-2.375 -0.128,-4.729 -0.371,-7.056 l -29.73,8.798 z"
   style="fill:#e96d1f"
   id="path7" />
<path
   d="m 150.27512,9.5830018 -7.61699,2.7219992 c 0.041,0.962 0.066,2.254 0.066,3.225 0,41.219 -37.271,98.204009 -87.271995,107.120009 -3.24501,1.088 -7.53801,2.077 -10.932,2.931 v 1.638 C 109.77413,121.65901 155.62013,55.353001 150.28012,9.5790018 Z"
   style="fill:#d9541e"
   id="path8" />

<path
   d="m 36.595,14.188001 c -0.077,1.313 1.787,0.968 1.787,2.293 0,38.551 46.558007,97.366009 91.68799,108.730009 v 1.639 C 70.117,121.33001 1.5099999,59.050001 -2.8908666e-8,7.6592382e-7 L 36.599,14.189001 Z"
   style="fill:url(#SVGID_left_)"
   id="path9" />
<path
   d="m 54.727,18.931001 c -0.076,1.313 -0.12,2.63 -0.12,3.957 0,38.551 30.698995,90.497009 75.82699,101.860009 v 1.639 C 71.39,123.59701 24.624,63.363001 24.624,17.187001 c 0,-2.375 0.128,-4.729 0.371,-7.056 l 29.73,8.798 z"
   style="fill:#a0ce67"
   id="path10" />
<path
   d="m 24.709,9.5820018 7.617,2.7219992 c -0.041,0.962 -0.066,2.254 -0.066,3.225 0,41.219 37.271,98.204009 87.27199,107.120009 3.245,1.088 7.538,2.077 10.932,2.931 v 1.638 C 65.21,121.65801 19.364,55.352001 24.704,9.5780018 Z"
   style="fill:#439639"
   id="path11" />





</svg>
